<?xml version="1.0" encoding="UTF-8" standalone="no"?>
<!-- Created with Inkscape (http://www.inkscape.org/) -->

<svg
   width="84.513832"
   height="139.86685"
   viewBox="0 0 22.360951 37.006437"
   version="1.1"
   id="svg1"
   xmlns:inkscape="http://www.inkscape.org/namespaces/inkscape"
   xmlns:sodipodi="http://sodipodi.sourceforge.net/DTD/sodipodi-0.dtd"
   xmlns="http://www.w3.org/2000/svg"
   xmlns:svg="http://www.w3.org/2000/svg">
  <sodipodi:namedview
     id="namedview1"
     pagecolor="#ffffff"
     bordercolor="#000000"
     borderopacity="0.25"
     inkscape:showpageshadow="2"
     inkscape:pageopacity="0.0"
     inkscape:pagecheckerboard="0"
     inkscape:deskcolor="#d1d1d1"
     inkscape:document-units="mm" />
  <defs
     id="defs1" />
  <g
     inkscape:label="Layer 1"
     inkscape:groupmode="layer"
     id="layer1"
     transform="translate(-4.1104589,-0.03523049)">
    <path
       d="M 9.1331186,36.89083 C 8.8250219,36.762234 8.5200339,36.574378 8.4553639,36.473372 8.3906942,36.37237 8.3344122,34.741264 8.3302992,32.848698 l -0.0075,-3.44104 -0.150307,-1.939815 -0.262784,-1.835582 c 0.08012,-0.598864 0.05571,-1.034875 -0.07379,-1.319144 -0.236615,-0.519325 -0.353791,-0.440965 -1.3848065,0.926028 -1.411755,1.871811 -2.119429,2.434626 -2.119429,1.685596 0,-0.177245 -0.07745,-0.447329 -0.172108,-0.600176 -0.133813,-0.216086 -0.0092,-0.755414 0.560166,-2.424097 0.813352,-2.383798 0.794612,-2.312558 0.57223,-2.175115 -0.223144,0.137904 -0.229768,0.183074 0.469298,-3.200967 1.018276,-4.929243 1.268332,-5.945566 1.6821735,-6.836974 0.215849,-0.464937 0.43131,-1.03416 0.4787947,-1.264944 0.04749,-0.230784 0.340387,-0.7709481 0.650886,-1.2003651 0.310498,-0.429411 0.8282977,-1.17687 1.1506704,-1.661019 0.3223727,-0.484143 0.9934617,-1.312393 1.4913177,-1.840555 0.745493,-0.790873 0.938682,-1.115581 1.095056,-1.840555 0.379319,-1.758536 1.561173,-3.22095795 2.974574,-3.68071694 1.394025,-0.453456 3.322315,0.10670215 4.686718,0.78570099 0.357248,0.17778555 0.506578,-0.0354339 0.76606,0.55595095 0.726353,0.6629484 0.588418,0.3257047 0.381366,1.1682156 -0.889518,0.6705746 -0.751385,0.6276974 -1.393054,1.2693644 -0.523141,0.523141 -0.547749,0.596643 -0.456807,1.364487 0.05287,0.446361 0.176827,0.908819 0.275475,1.027683 0.09865,0.118864 0.137962,0.283102 0.08736,0.364976 -0.05057,0.08188 0.04736,0.185307 0.217644,0.22984 0.170305,0.04452 0.310488,0.214772 0.311504,0.378303 0.0012,0.16353 0.04809,0.513396 0.104557,0.777474 0.138215,0.646173 0.138439,2.8179331 4.98e-4,4.0012081 -0.13465,1.154379 -0.206872,1.405695 -0.374225,1.302261 -0.0698,-0.04313 -0.216774,0.402439 -0.326614,0.99016 -0.109842,0.587721 -0.292798,1.140611 -0.406581,1.228638 -0.113787,0.08803 -0.405033,0.680344 -0.64722,1.316258 -0.242187,0.63592 -0.511829,1.140068 -0.599202,1.120341 -0.08737,-0.01972 -0.399764,0.631558 -0.694209,1.447311 -0.587256,1.627012 -1.261254,2.889222 -1.61536,3.025101 -0.125162,0.04803 -0.227566,0.156678 -0.227566,0.241431 0,0.08476 -0.22407,0.479769 -0.497923,0.877804 l -0.497917,0.723705 0.441128,1.037947 c 0.411258,0.96765 1.275918,0.543598 1.298166,1.416958 0.02873,1.128464 -1.475421,0.507726 -1.951574,0.204964 l -1.401114,0.113187 0.107891,1.94097 c 0.07597,1.366719 0.430645,4.57281 0.442731,5.868597 0.0091,0.979337 -0.04918,1.316423 -0.270066,1.560471 -0.316123,0.349309 -0.71772,0.401845 -0.990049,0.129523 -0.135656,-0.135662 -0.248175,-0.115356 -0.44356,0.08002 -0.294498,0.2945 -0.531761,0.324773 -0.869656,0.110981 -0.14681,-0.09288 -0.379445,-0.07116 -0.640196,0.05976 -0.3394367,0.170481 -0.5055197,0.165667 -0.9697494,-0.02813 z M 14.372194,26.775463 c 0.166156,-0.266062 0.09044,-0.505401 -0.518991,-1.640497 -0.392446,-0.730944 -0.71474,-1.248871 -0.71621,-1.150942 -0.0012,0.09793 -0.19213,0.157257 -0.423688,0.13184 -0.417307,-0.04579 -0.420138,-0.0389 -0.32149,0.782233 0.05474,0.455653 0.100154,1.05229 0.100923,1.325871 0.0012,0.452483 0.230729,0.910305 0.360324,0.905769 1.044268,-0.03659 1.304977,-0.01139 1.519132,-0.354274 z"
       style="fill:#000000;stroke-width:0.604906"
       id="path1"
       sodipodi:nodetypes="cscccccssccccscccscssccsssccccccsssccssscccccsccsccccccsccsccc" />
    <path
       style="fill:#808080;stroke-width:0.449792;stroke-linejoin:round;paint-order:fill markers stroke"
       d="m 12.009595,4.4642994 c -1.949202,2.4522211 -0.50302,0.25151 -1.949202,2.4522211 C 8.6142117,9.1172315 9.3466055,8.1485814 8.6142117,9.1172315 6.6650107,11.695208 9.180109,10.060393 10.814923,9.6831286 12.803042,9.2243317 13.968326,6.9227879 14.461816,6.161991 15.970874,3.835525 13.392898,3.2067504 13.078511,2.6408532 12.764124,2.0749561 12.009595,4.4642994 12.009595,4.4642994 Z"
       id="path2"
       sodipodi:nodetypes="csssssc" />
    <path
       style="fill:#808080;stroke-width:0.449792;stroke-linejoin:round;paint-order:fill markers stroke"
       d="m 16.621337,11.281383 c -1.966958,2.786519 -2.295335,3.416426 -3.709771,4.338545 -11.3808194,7.419541 -3.6786031,3.968743 1.949202,0.06288 2.262023,-1.569912 3.228831,-4.51258 3.269627,-6.099113 0.01664,-0.647149 -1.509058,1.697691 -1.509058,1.697691 z"
       id="path2-5"
       sodipodi:nodetypes="csssc" />
    <path
       style="fill:#808080;stroke-width:0.449792;stroke-linejoin:round;paint-order:fill markers stroke"
       d="m 22.635885,1.0689172 c 1.634678,-0.021064 3.835525,1.0689168 3.835525,1.0689168 0,0 -2.074956,0.4401422 -3.898403,0.5030197 -1.890432,0.065187 -1.509058,0.3143872 -2.263588,0.062877 C 19.55489,2.4522209 19.8064,0.94316189 19.8064,0.94316189 c 0.940923,0.0140328 1.886531,0.12002421 2.829485,0.12575531 z"
       id="path3"
       sodipodi:nodetypes="scsscs" />
    <ellipse
       style="fill:#2b2200;stroke-width:0.449792;stroke-linejoin:round;paint-order:fill markers stroke"
       id="path4"
       cx="17.008352"
       cy="1.7920076"
       rx="0.5344584"
       ry="0.47158092" />
  </g>
</svg>
