<?xml version="1.0" encoding="UTF-8" standalone="no"?>
<!-- Created with Inkscape (http://www.inkscape.org/) -->

<svg
   width="126.10906"
   height="93.244629"
   viewBox="0 0 33.366355 24.670974"
   version="1.1"
   id="svg1"
   xmlns="http://www.w3.org/2000/svg"
   xmlns:svg="http://www.w3.org/2000/svg">
  <defs
     id="defs1" />
  <g
     id="layer1"
     transform="translate(-3.5748726,-1.1012814)">
    <g
       id="g6">
      <g
         id="g5">
        <path
           d="m 10.611723,25.510062 c 0.493949,-0.525899 0.585449,-1.146898 0.506249,-3.436058 -0.0525,-1.535531 -0.0375,-2.186649 0.0615,-2.429094 0.171,-0.423299 0.147,-0.498449 0.764099,2.415189 l 0.514649,2.43103 0.242399,-0.242399 c 0.22485,-0.22485 0.243299,-0.35235 0.253499,-1.760637 0.0061,-0.835048 0.045,-1.640591 0.087,-1.790171 0.0765,-0.271799 0.0765,-0.271799 0.3885,0.138 0.172049,0.22545 0.403349,0.409949 0.514048,0.409949 0.15735,0 0.2088,0.1005 0.23535,0.460649 0.018,0.25335 0.09,0.478949 0.1581,0.501449 0.193949,0.063 0.828148,-0.526499 0.995097,-0.925798 0.1035,-0.246449 0.1506,-0.851548 0.1506,-1.91335 0,-1.205248 0.0405,-1.644792 0.18255,-1.963391 l 0.182549,-0.410549 0.096,0.607349 c 0.297,1.88059 0.472499,2.779493 0.666149,3.410962 0.231449,0.754798 0.630748,1.464596 0.794548,1.412547 0.203699,-0.0645 0.411749,-1.049848 0.470849,-2.228711 0.057,-1.133097 -0.09,-2.398584 -0.481949,-4.140515 -0.042,-0.18945 -0.0255,-0.24135 0.0525,-0.1656 0.063,0.06 0.348149,0.781199 0.633448,1.600992 0.610349,1.754351 0.717149,1.97671 1.214848,2.527599 0.362549,0.401249 1.205997,0.883048 1.329597,0.759448 0.033,-0.033 -0.2331,-1.034547 -0.591149,-2.22556 -0.358199,-1.190997 -0.609899,-2.16556 -0.559499,-2.16556 0.051,0 0.16635,0.1863 0.2574,0.413999 0.330899,0.826948 1.882,3.989166 1.959895,3.995751 0.0435,0.0038 0.16215,-0.15225 0.2628,-0.346649 0.257849,-0.498599 0.218699,-1.319547 -0.1125,-2.351695 -0.1557,-0.485849 -0.283649,-0.930298 -0.284399,-0.987747 -8.4e-4,-0.057 0.167849,0.06 0.374849,0.260249 l 0.376199,0.364649 0.135,-0.252899 c 0.0945,-0.17535 0.113999,-0.534599 0.0645,-1.171048 l -0.0705,-0.918298 h 0.331949 c 0.257399,0 0.331949,-0.0495 0.331949,-0.219149 0,-0.12 0.17385,-0.738899 0.386399,-1.374297 0.21255,-0.635249 0.3864,-1.308297 0.3864,-1.495647 0,-0.423899 0.175949,-0.497699 0.681898,-0.286349 0.370649,0.154949 0.532649,0.136499 0.532649,-0.0585 0,-0.0465 -0.105,-0.1005 -0.23265,-0.12 -0.164549,-0.0255 -0.293999,-0.196949 -0.442049,-0.587399 -0.199199,-0.524998 -0.199949,-0.559198 -0.0165,-0.696598 0.1911,-0.1425 0.438599,-0.132 0.841349,0.036 0.177599,0.075 0.190199,0.057 0.0915,-0.1275 -0.063,-0.1185 -0.24285,-0.282899 -0.3993,-0.366599 -0.357749,-0.1913997 0.64679,-1.7842197 1.000039,-1.9451694 0.231,-0.1049998 0.568971,0.4145197 0.91022,0.6020197 1.759194,0.2171505 0.237119,0.4312695 2.804078,0.7865593 1.589771,-0.105 0.953129,0.4923354 1.434568,0.5910354 3.843127,0.443782 4.239038,2.742269 5.227034,1.459072 L 36.058899,11.106286 C 37.340325,11.528178 36.745651,9.4818317 36.851051,9.343382 37.04305,9.0897326 36.895306,8.2660964 36.716357,7.8487973 36.597857,7.5726479 32.95998,6.5183639 30.001266,5.3396814 L 26.688883,4.0200141 25.639936,3.1305161 C 23.630375,1.4263848 22.489148,1.1061805 18.407821,1.1013355 15.813577,1.0984255 14.38339,1.2123352 12.21243,1.5930344 11.537731,1.7115341 10.545424,1.8423339 10.007345,1.8837338 9.0789969,1.9557338 8.9873471,1.9857336 8.2123137,2.4921324 7.7630647,2.7853818 7.190366,3.0780312 6.9394165,3.142531 L 7.3304693,4.23651 c 1.3984474,0.0084 1.8574273,0.860407 1.8574273,1.2667561 0,0.084 -0.1771496,0.6176986 -0.3935991,1.1846974 -0.466499,1.2217473 -0.8224482,2.4628297 -0.8174982,2.8504138 0.00377,0.2969994 0.00885,0.2933994 0.4123491,-0.2918993 0.2228995,-0.3233994 0.072,0.3407992 -0.492749,2.17111 -0.5875487,1.903166 -1.0198477,2.873334 -1.8451464,4.139331 -0.336899,0.516899 -0.581098,0.939748 -0.542698,0.939748 0.039,0 0.228449,-0.1215 0.422249,-0.268649 0.221699,-0.16905 0.589198,-0.722849 0.9914976,-1.493997 0.3515992,-0.673949 0.6598485,-1.204647 0.6850485,-1.179447 0.051,0.051 -0.3119994,1.539626 -0.6238487,2.555754 -0.4036491,1.315047 -0.6826484,1.848926 -1.9998104,3.826447 -0.736199,1.105197 -1.365597,2.079879 -1.398447,2.165829 -0.045,0.1155 0.0525,0.099 0.369899,-0.0645 C 5.30169,21.344206 6.5843523,19.533981 7.3332707,17.27038 L 7.64377,16.331832 7.57927,17.154281 c -0.0855,1.077747 -0.466349,2.519484 -1.162047,4.393114 -0.873448,2.35255 -1.198348,3.341483 -1.097548,3.341483 0.051,0 0.347549,-0.279299 0.659549,-0.620548 0.9869974,-1.079848 1.8567405,-3.208943 2.2691046,-5.554323 0.1585496,-0.901798 0.2774994,-1.255047 0.2774994,-0.824248 0,0.472499 -0.2414995,2.16142 -0.495449,3.465937 -0.4657489,2.391955 -0.6427486,4.306145 -0.3982491,4.306145 0.1004998,0 0.9629979,-1.715606 1.3438471,-2.674944 0.1139997,-0.287099 0.3127493,-1.355247 0.441899,-2.373894 0.1289997,-1.018648 0.2497495,-1.867976 0.2680494,-1.887476 0.039,-0.042 0.1184998,1.063498 0.2740494,3.844716 0.1304992,2.329825 0.2198992,3.202013 0.3286492,3.202013 0.042,0 0.1869,-0.118499 0.322649,-0.262799 z"
           style="fill:#000000;stroke-width:0.417313"
           id="path1-3" />
        <path
           style="fill:#808080;stroke-width:0.214177;stroke-linejoin:round;paint-order:fill markers stroke"
           d="m 6.0587153,3.2078968 c -0.7739541,0.083512 -1.7520197,0.7246124 -1.7520197,0.7246124 0,0 1.0060453,0.089421 1.8716247,0.014882 C 7.075697,3.8701132 6.9096617,4.0097232 7.2519646,3.8476852 7.5942654,3.6856474 7.3890575,2.9866579 7.3890575,2.9866579 6.9450648,3.0470905 6.504116,3.1512663 6.0586887,3.2078923 Z"
           id="path3-5" />
        <ellipse
           style="fill:#2b2200;stroke-width:0.206577;stroke-linejoin:round;paint-order:fill markers stroke"
           id="path4-4"
           cx="8.6549664"
           cy="2.7625237"
           rx="0.24546139"
           ry="0.21658358" />
        <path
           style="fill:#808080;stroke-width:0.214177;stroke-linejoin:round;paint-order:fill markers stroke"
           d="M 6.2305862,4.2999435 C 5.4564877,4.3821056 4.3649044,3.9625011 4.3649044,3.9625011 c 0,0 0.9643377,-0.3002933 1.8260876,-0.4106148 0.8934067,-0.1143734 0.7015877,-0.2156855 1.0704285,-0.1297548 0.3688386,0.085931 0.3161971,0.8125158 0.3161971,0.8125158 -0.446726,0.034893 -0.8997339,0.026389 -1.3470564,0.065306 z"
           id="path3-5-5" />
        <path
           style="fill:#808080;stroke-width:0.214177;stroke-linejoin:round;paint-order:fill markers stroke"
           d="m 11.934731,2.9934476 c -0.774098,0.082162 -1.665607,-1.1377418 -1.665607,-1.1377418 0,0 2.276263,-0.4534065 3.13769,-0.5662286 1.382479,-0.181065 2.013189,-0.1267633 3.382405,-0.1742159 0.378488,-0.013117 -3.507456,1.8128901 -3.507456,1.8128901 -0.446726,0.034893 -0.899734,0.026389 -1.347057,0.065306 z m 2.381736,-1.4150793"
           id="path3-5-5-7" />
        <path
           style="fill:#808080;stroke-width:0.214177;stroke-linejoin:round;paint-order:fill markers stroke"
           d="m 18.146045,4.9173411 c 0.192926,-0.7541606 -3.544078,-0.5240158 -3.710855,-0.04668 -1.324018,3.7894991 -3.8428,4.3457576 -5.8977004,4.5302926 -0.2591903,0.02328 -0.8844227,1.8843333 -0.9170969,2.9673553 -0.01142,0.378542 4.7828653,0.832134 5.7310783,0.342885 1.274954,-0.657829 3.453319,-2.550798 3.612785,-3.1741622 z"
           id="path3-5-5-7-5" />
        <path
           style="fill:#808080;stroke-width:0.214177;stroke-linejoin:round;paint-order:fill markers stroke"
           d="m 24.397119,2.2847565 9.674816,4.3250206 C 34.7942,7.4661902 33.438195,9.2896098 32.677504,10.27648 32.272836,10.801471 25.691903,8.3122544 25.691903,8.3122544 26.833623,6.6232539 24.66175,4.5126123 24.397119,2.2847565 Z"
           id="path3-5-5-7-1" />
      </g>
    </g>
  </g>
</svg>
