<?xml version="1.0" encoding="UTF-8" standalone="no"?>
<!-- Created with Inkscape (http://www.inkscape.org/) -->

<svg
   width="70.035721"
   height="138.22812"
   viewBox="0 0 18.530284 36.572856"
   version="1.1"
   id="svg1"
   xmlns="http://www.w3.org/2000/svg"
   xmlns:svg="http://www.w3.org/2000/svg">
  <defs
     id="defs1" />
  <g
     id="layer1"
     transform="translate(-5.1735821,-0.26502616)">
    <g
       id="g5">
      <path
         d="M 7.8173472,36.273075 C 7.2945644,35.651783 7.2908633,35.61183 7.3306262,31.019084 L 7.3706976,26.391146 6.9023587,24.277049 C 7.0538365,24.239399 6.9029757,23.504864 6.491664,22.277387 5.0973303,18.116284 4.9195549,15.091432 5.7973396,10.463466 5.9492519,9.6625366 5.93202,9.6121272 5.600264,9.8869349 5.1981931,10.219988 5.1412911,10.105702 5.4215365,9.5279657 5.5231846,9.3184142 5.8393126,8.6662833 6.1240427,8.0787852 6.409253,7.4902976 7.1183745,6.6034886 7.7031187,6.1040322 8.2868794,5.6054166 9.452381,4.2858528 10.293123,3.1716692 c 2.146307,-2.84436982 3.291966,-3.35268142 5.824722,-2.58434346 0.592407,0.17971278 1.297265,0.32781946 1.566352,0.3291256 0.04059,0.58987506 1.214406,0.82550736 0.507733,1.46969516 -2.268235,2.067673 -2.601913,2.9016088 -1.000643,5.5640312 0.883663,1.4692584 0.984092,1.7751024 0.987376,3.0069763 0.002,0.754246 -0.09061,1.371356 -0.205817,1.371356 -0.11521,0 -0.271952,0.370266 -0.348315,0.822814 -0.612409,3.629314 -2.004754,7.061941 -3.916257,9.654965 -0.556258,0.754585 -1.011378,1.4524 -1.011378,1.550702 l 0.0781,2.680163 c -0.177442,-0.0055 -0.273895,1.241004 -0.329125,4.253293 -0.07467,4.072353 -0.100155,4.284447 -0.575707,4.790604 -0.549369,0.584726 -0.521961,0.576105 -2.2821988,0.717887 -1.1559573,0.09311 -1.2810885,0.05594 -1.7706498,-0.525863 z"
         style="fill:#000000;stroke-width:0.829293"
         id="path1-7" />
      <path
         style="fill:#808080;stroke-width:0.449792;stroke-linejoin:round;paint-order:fill markers stroke"
         d="M 7.5014584,6.2252708 C 6.0238376,8.0487172 6.283553,7.6155011 5.8136291,8.4682087 3.9769857,11.800918 6.61911,8.4032931 7.191381,7.8701061 7.7232586,7.3745537 7.6913572,6.6114027 9.0727734,5.3924629 9.5881406,4.937711 10.486166,2.9718899 9.8462605,3.7582563 9.1441386,4.6210797 7.5014584,6.2252708 7.5014584,6.2252708 Z"
         id="path2-2" />
      <path
         style="fill:#808080;stroke-width:0.449792;stroke-linejoin:round;paint-order:fill markers stroke"
         d="m 16.241815,5.9120226 c 0.487302,1.0060395 0.636289,1.4059497 1.106213,2.2586573 1.836643,3.3327091 -0.05095,0.013681 -0.623222,-0.5195058 C 16.192929,7.1556217 16.29626,6.738546 16.069524,6.3996414 15.770949,5.9533583 16.211066,5.4973434 16.241815,5.9120226 Z"
         id="path2-2-8" />
      <ellipse
         style="fill:#2b2200;stroke-width:0.449792;stroke-linejoin:round;paint-order:fill markers stroke"
         id="path4-4"
         cx="14.212602"
         cy="1.6954577"
         rx="0.5344584"
         ry="0.47158092" />
      <path
         style="fill:#808080;stroke-width:0.449792;stroke-linejoin:round;paint-order:fill markers stroke"
         d="m 19.868341,0.88377679 c 1.634678,-0.021064 3.835525,1.06891681 3.835525,1.06891681 0,0 -2.074956,0.4401422 -3.898403,0.5030197 -1.890432,0.065187 -1.509058,0.3143872 -2.263588,0.062877 -0.754529,-0.2515098 -0.503019,-1.76056882 -0.503019,-1.76056882 0.940923,0.0140328 1.886531,0.12002421 2.829485,0.12575531 z"
         id="path3-5" />
    </g>
  </g>
</svg>
