<?xml version="1.0" encoding="UTF-8" standalone="no"?>
<!-- Created with Inkscape (http://www.inkscape.org/) -->

<svg
   width="110.86221"
   height="157.55917"
   viewBox="0 0 29.332294 41.687531"
   version="1.1"
   id="svg1"
   xmlns="http://www.w3.org/2000/svg"
   xmlns:svg="http://www.w3.org/2000/svg">
  <defs
     id="defs1" />
  <g
     id="layer1"
     transform="translate(0.58698244,-0.75647278)">
    <g
       id="g10">
      <path
         d="m 24.795359,42.205649 c -0.43656,-0.128629 -1.05595,-0.559693 -1.37641,-0.957919 -0.50481,-0.627313 -0.6058,-0.663727 -0.75591,-0.272555 -0.21396,0.557559 -0.87349,0.590935 -1.07929,0.05462 -0.0838,-0.218281 -0.38063,-0.396875 -0.65971,-0.396875 -0.58801,0 -0.90291,-0.698369 -1.43167,-3.175 -0.33726,-1.579696 -2.04509,-10.303105 -2.10558,-10.474648 -0.0894,-0.253571 -0.77996,-0.193136 -1.81967,-0.261558 -0.60849,0.656397 -1.3813,0.857302 -2.32341,1.026633 -0.94862,0.157936 -2.83142,0.146924 -3.2443398,-0.602978 -0.52277,-0.949397 -0.59573,-1.304962 -0.002,-1.934613 0.4992498,-0.529222 0.9424398,-0.02473 1.9308998,-1.205336 l 1.11821,-1.335581 -0.55198,-1.081972 c -0.30359,-0.595085 -0.65401,-1.01892 -0.7787,-0.941856 -0.12469,0.07706 -0.29498,-0.03779 -0.37842,-0.255238 -0.0834,-0.217445 -0.33178,-0.395355 -0.55185,-0.395355 -0.22008,0 -0.4806,-0.320575 -0.57894,-0.712389 l -0.1788,-0.712388 -0.2640198,0.646243 c -0.24599,0.602091 -0.28127,0.56038 -0.51633,-0.610529 -0.14294,-0.712027 -0.39885,-1.256771 -0.5904,-1.256771 -0.33994,0 -0.76809,-0.762998 -1.59603,-2.84427 -0.42873,-1.077717 -0.91015,-1.489902 -0.92708,-0.79375 -0.004,0.181901 -0.15326,0.0926 -0.33073,-0.198438 -0.22363,-0.36673 -0.30157,-1.695246 -0.2539,-4.3278795 l 0.0688,-3.7987124 -1.02525,-0.994973 C 3.0234032,2.7172812 2.6408794,3.44705 3.2315792,1.481948 c 0.65484,-0.141596 1.80319,-0.400723 2.5519,-0.57583802 1.93987,-0.453718 3.38694,0.12210902 4.4184198,1.75820702 0.80406,1.2753771 3.50387,3.8373515 4.0438,3.8373515 0.17884,0 0.48495,0.15979 0.68025,0.355088 0.1953,0.195298 0.62052,0.497144 0.94494,0.670767 0.32442,0.173624 0.58985,0.43516 0.58985,0.581191 0,0.146031 0.59519,0.885982 1.32265,1.644337 0.72745,0.7583535 1.32276,1.5004365 1.32291,1.6490735 1.5e-4,0.148637 0.59195,1.081827 1.3151,2.073755 1.47166,2.018631 2.6515,4.27225 2.73593,5.225916 0.0308,0.34769 0.67977,1.777993 1.44219,3.178452 0.76242,1.400459 1.38622,2.807757 1.38622,3.127329 0,0.319572 2.25914,2.471816 2.75576,3.076567 0.10196,0.124157 -1.87377,0.611918 -2.0771,0.58029 -0.81871,-0.127348 -1.70361,-0.979133 -2.13227,-1.407787 -0.30111,-0.301118 -0.84089,-1.698039 -1.47045,-1.30895 -0.2731,0.168786 1.25546,5.333971 2.21657,8.110403 1.41872,4.098185 2.12051,6.752151 1.92216,7.269041 -0.0769,0.20026 -0.32206,0.36411 -0.5449,0.36411 -0.22285,0 -0.40518,0.178593 -0.40518,0.396875 0,0.440396 -0.28207,0.463175 -1.45521,0.117521 z M 17.373749,26.81413 c -0.10319,-0.469814 -0.329,-1.333017 -0.5018,-1.918229 l -0.31418,-1.064023 -0.57756,1.290404 c -0.31766,0.709722 -0.57756,1.366755 -0.57756,1.460072 0,0.242043 1.51272,0.265791 1.93214,0.274186 0.25925,0.0052 0.17723,0.587166 0.039,-0.04241 z m -2.19272,-1.481797 c 0.39728,-0.795554 0.40181,-0.992409 0.0469,-2.03413 -0.40492,-1.188373 -1.40968,-2.426915 -1.05034,-1.294721 0.13833,0.435838 -0.0987,0.778801 -1.15246,1.667321 -0.90084,0.759605 -1.32661,1.318774 -1.32661,1.742276 0,0.767046 0.327,0.917385 1.85209,0.851491 1.06297,-0.04593 1.23778,-0.145876 1.63046,-0.932237 z"
         style="fill:#000000"
         id="path1-5" />
      <path
         style="fill:#808080;stroke-width:0.449792;stroke-linejoin:round;paint-order:fill markers stroke"
         d="m 10.732952,3.4960889 c 2.255476,2.1738457 0.644087,0.4096829 2.255476,2.1738457 0.200712,0.2197412 1.561637,0.6556244 2.415339,1.5192653 C 17.675821,9.4877038 14.306938,7.9786631 12.636656,7.820216 10.605405,7.627526 9.1154306,6.1913472 8.5259487,5.5022497 6.7233539,3.3950354 9.1959345,2.431883 9.4329728,1.8294781 9.670011,1.2270732 10.732952,3.4960889 10.732952,3.4960889 Z"
         id="path2-55" />
      <path
         style="fill:#808080;stroke-width:0.449792;stroke-linejoin:round;paint-order:fill markers stroke"
         d="m 13.204681,14.879491 c 1.966958,2.786519 2.295335,3.416426 3.709771,4.338545 11.380819,7.419541 3.678603,3.968743 -1.949202,0.06288 -2.262023,-1.569912 -3.228831,-4.51258 -3.269627,-6.099113 -0.01664,-0.64715 1.509058,1.697691 1.509058,1.697691 z"
         id="path2-5-4" />
      <path
         style="fill:#808080;stroke-width:0.214177;stroke-linejoin:round;paint-order:fill markers stroke"
         d="m 17.490522,27.165682 c -0.409457,-1.733539 -0.973487,-3.223168 -2.562203,-5.556306 -0.630557,-0.926017 6.75829,2.593693 7.944571,2.974917 1.22047,0.899652 -0.184209,1.896252 0.906713,2.967624 -1.013042,2.265459 -5.521773,2.862355 -6.289081,-0.386235 z"
         id="path3-5-5-7-1-1-5" />
      <g
         id="g9"
         transform="matrix(1.2284276,0.19582165,-0.19582165,1.2284276,-0.38685989,-1.0566891)">
        <path
           style="fill:#808080;stroke-width:0.214177;stroke-linejoin:round;paint-order:fill markers stroke"
           d="m 1.9752857,1.6979469 c -0.773954,0.08351 -1.75201903,0.724612 -1.75201903,0.724612 0,0 1.00604503,0.08942 1.87162403,0.01488 0.897377,-0.07728 0.731342,0.06233 1.073645,-0.09971 0.3423,-0.162038 0.137093,-0.861027 0.137093,-0.861027 -0.443993,0.06043 -0.884942,0.164608 -1.330369,0.221234 z"
           id="path3-5-4" />
        <path
           style="fill:#808080;stroke-width:0.214177;stroke-linejoin:round;paint-order:fill markers stroke"
           d="m 2.1471567,2.7899929 c -0.774098,0.08216 -1.86568203,-0.337442 -1.86568203,-0.337442 0,0 0.96433803,-0.300293 1.82608803,-0.410615 0.893407,-0.114373 0.701588,-0.215685 1.070429,-0.129755 0.368838,0.08593 0.316197,0.812516 0.316197,0.812516 -0.446726,0.03489 -0.899734,0.02639 -1.347057,0.06531 z"
           id="path3-5-5-2" />
      </g>
      <ellipse
         style="fill:#2b2200;stroke-width:0.206577;stroke-linejoin:round;paint-order:fill markers stroke"
         id="path4-4-6-6"
         cx="6.1030283"
         cy="1.7331078"
         rx="0.24546139"
         ry="0.21658358" />
    </g>
  </g>
</svg>
