<?xml version="1.0" encoding="UTF-8" standalone="no"?>
<!-- Created with Inkscape (http://www.inkscape.org/) -->

<svg
   width="170.10925"
   height="138.30461"
   viewBox="0 0 45.008072 36.593095"
   version="1.1"
   id="svg1"
   inkscape:version="1.3 (0e150ed6c4, 2023-07-21)"
   sodipodi:docname="magpies.svg"
   xmlns:inkscape="http://www.inkscape.org/namespaces/inkscape"
   xmlns:sodipodi="http://sodipodi.sourceforge.net/DTD/sodipodi-0.dtd"
   xmlns="http://www.w3.org/2000/svg"
   xmlns:svg="http://www.w3.org/2000/svg">
  <sodipodi:namedview
     id="namedview1"
     pagecolor="#ffffff"
     bordercolor="#000000"
     borderopacity="0.25"
     inkscape:showpageshadow="2"
     inkscape:pageopacity="0.0"
     inkscape:pagecheckerboard="0"
     inkscape:deskcolor="#d1d1d1"
     inkscape:document-units="mm"
     inkscape:zoom="5.9508979"
     inkscape:cx="36.969211"
     inkscape:cy="44.9512"
     inkscape:window-width="1920"
     inkscape:window-height="1112"
     inkscape:window-x="-8"
     inkscape:window-y="-8"
     inkscape:window-maximized="1"
     inkscape:current-layer="layer1" />
  <defs
     id="defs1" />
  <g
     inkscape:label="Layer 1"
     inkscape:groupmode="layer"
     id="layer1"
     transform="translate(4.3224064,2.6531332)">
    <g
       id="g8">
      <path
         d="m 1.9274856,33.605771 c 0.180662,-0.148954 0.2135883,-0.29083 0.1068341,-0.460315 -0.128365,-0.203786 -0.093281,-0.252205 0.2084236,-0.287799 0.2921234,-0.03447 0.3988278,-0.1635 0.5481062,-0.662793 l 0.1853671,-0.619992 0.3408528,0.741986 c 0.4373406,0.952029 0.6604569,0.898367 1.4916184,-0.358755 0.3387578,-0.512363 0.8345075,-1.08931 1.1016726,-1.282108 0.518184,-0.37394 0.5399534,-0.658317 0.071365,-0.932187 C 5.7189778,29.590247 5.7709118,29.560176 6.7183287,29.317249 7.9816125,28.993327 8.2332684,28.751039 7.6471203,28.422948 7.035882,28.080823 7.0975319,27.979536 7.8205506,28.138001 l 0.6453489,0.141447 1.1069086,-0.711315 c 0.6087979,-0.391223 1.5461729,-0.993746 2.0830559,-1.338943 0.550925,-0.354226 0.952584,-0.702124 0.922057,-0.798646 -0.03559,-0.112531 0.148377,-0.227411 0.537923,-0.335907 0.325609,-0.09068 1.141861,-0.492479 1.813891,-0.892868 1.445606,-0.861279 1.990667,-0.945956 3.180069,-0.494042 0.705363,0.268007 0.799771,0.266072 1.489305,-0.03043 0.409006,-0.175876 1.334886,-0.403467 2.083256,-0.5121 1.289329,-0.187149 1.402085,-0.175122 2.631079,0.280653 2.143993,0.795104 2.005015,0.790206 4.472055,0.157673 3.967109,-1.017134 6.55951,-1.906017 6.461608,-2.215558 -0.05707,-0.180429 -1.383825,-0.439726 -2.645924,-0.517119 -1.487756,-0.09122 -2.900513,-0.321252 -4.273691,-0.695853 -1.213907,-0.331154 -3.618342,-1.435265 -3.702067,-1.699982 -0.135373,-0.428015 0.321947,-0.817273 1.395085,-1.187466 0.729008,-0.251485 1.196064,-0.49755 1.470393,-0.774691 0.574211,-0.58009 1.556869,-2.07731 2.138453,-3.258236 0.274516,-0.557413 0.649161,-1.16297 0.832539,-1.345681 0.263218,-0.262261 0.294966,-0.390185 0.150793,-0.607591 -0.556031,-0.838471 -0.544386,-0.793955 -0.162957,-0.622637 0.535803,0.240634 0.85664,0.04884 1.255708,-0.7506772 0.201715,-0.404119 0.511593,-0.880806 0.688627,-1.059306 0.233042,-0.234974 0.277206,-0.387961 0.160026,-0.554327 -0.133503,-0.189541 -0.07176,-0.27597 0.352693,-0.49355 0.283004,-0.145076 0.602357,-0.383422 0.709676,-0.529662 0.187019,-0.254844 0.176575,-0.276276 -0.251368,-0.51581 -0.53603,-0.300037 -0.453589,-0.346202 0.37208,-0.208363 l 0.621773,0.103801 0.764712,-0.703897 c 0.42258,-0.388972 1.104273,-0.851144 1.523671,-1.033015 0.585498,-0.253902 0.755777,-0.391961 0.745047,-0.604092 -0.01265,-0.249795 0.0975,-0.301542 1.202969,-0.565178 1.551312,-0.36996 1.345031,-0.58345 -0.312753,-0.323673 -1.277267,0.200149 -1.274315,0.196606 0.651978,-0.783213 0.496474,-0.252532 1.093574,-0.628975 1.326889,-0.836533 l 0.424206,-0.377377 -0.774282,0.131609 c -0.425852,0.07239 -1.556062,0.330163 -2.511569,0.572832 -0.955504,0.242677 -1.788194,0.397382 -1.850419,0.343803 -0.0622,-0.05359 0.09174,-0.163225 0.342158,-0.243658 1.025486,-0.329376 3.043237,-1.78780405 2.937221,-2.12300004 -0.02042,-0.06456 0.194967,-0.233782 0.47864,-0.376058 0.452179,-0.226796 0.726587,-0.55056 0.541677,-0.639119 -0.03443,-0.01646 -1.41272,0.553223 -3.062937,1.26600699 -1.650218,0.71277705 -3.026421,1.28358105 -3.058227,1.26845405 -0.03182,-0.01512 0.270964,-0.243906 0.672831,-0.508395 1.084784,-0.71395805 2.612438,-1.93787704 3.122954,-2.502041 0.466532,-0.515556 0.851716,-1.213215 0.710371,-1.286639 -0.0447,-0.02323 -0.787531,0.485491 -1.650715,1.130473 -2.471785,1.84695095 -5.879839,3.872534 -5.767634,3.428005 0.02595,-0.102813 0.13208,-0.213789 0.235843,-0.246607 0.750606,-0.237402 3.927753,-3.641413 3.793857,-4.064758 -0.100439,-0.317562 -2.20915,1.270924 -4.165638,3.13796395 -1.826131,1.74264605 -3.654028,3.30580505 -3.785695,3.23741105 -0.04531,-0.02354 0.2045,-0.393231 0.555155,-0.821537 0.889683,-1.086691 0.906355,-1.122199 0.39731,-0.846169 -0.249061,0.135043 -1.037172,0.77014 -1.751367,1.411316 -2.787283,2.502303 -3.143241,2.759868 -5.497475,3.977891 -3.79287,1.962339 -4.234702,2.3976522 -4.932077,4.8592962 -0.655165,2.312639 -1.535144,2.932952 -3.996734,2.817369 -1.470582,-0.06905 -2.0885527,0.09551 -2.9798862,0.793507 -0.9188847,0.719577 -1.8366534,1.956585 -1.7129246,2.308753 0.089967,0.255969 -0.00531,0.320925 -1.1157379,0.76083 -2.3679755,0.938089 -3.6232519,1.918962 -5.4830308,4.284433 -0.65392623,0.831735 -1.5906346,1.932119 -2.0815704,2.445298 -0.5893326,0.61603 -0.8219531,0.95089 -0.6846364,0.985549 0.2100823,0.05303 0.00469,0.321718 -1.3866,1.81388 -0.3326012,0.356717 -0.5773413,0.661153 -0.5438702,0.676527 0.033497,0.01536 0.4407277,-0.153081 0.9050094,-0.374328 0.4642832,-0.221258 0.8725097,-0.387553 0.9071645,-0.369556 0.098142,0.05098 -0.2027181,0.639864 -0.787794,1.541943 -0.2941884,0.453588 -0.5073022,0.911936 -0.4735814,1.018553 0.081558,0.257865 1.0640657,-0.0525 1.8383612,-0.580868 0.3194604,-0.217924 0.5989573,-0.338913 0.6211115,-0.268867 0.022155,0.07005 -0.05127,0.696277 -0.163163,1.391615 -0.1968817,1.223472 -0.1932657,1.264267 0.1120832,1.264572 0.1735362,1.66e-4 0.36213127,-0.08938 0.41908577,-0.199066 0.056967,-0.109653 0.32028341,-0.26792 0.58516424,-0.351697 0.33532345,-0.106056 0.56822988,-0.306325 0.76682781,-0.65935 l 0.28522838,-0.507022 0.13144272,0.71627 c 0.0722955,0.393944 0.17514138,0.99232 0.22855418,1.329716 0.085312,0.538884 0.1282975,0.602418 0.3536173,0.522715 0.1410928,-0.04987 0.3740241,-0.187624 0.5176575,-0.306057 z"
         style="fill:#000000;stroke-width:0.546188"
         id="path1-9" />
      <path
         style="fill:#808080;stroke-width:0.167373;stroke-linejoin:round;paint-order:fill markers stroke"
         d="m 17.690175,9.4618175 c -0.579285,-0.1857402 -1.791001,2.0635965 -1.791001,2.0635965 4.132315,1.076309 2.835123,3.464331 2.744654,5.074083 -0.01141,0.203045 1.712276,0.364112 2.54595,0.512267 0.291389,0.05178 1.497344,-2.847798 1.226658,-3.636461 -0.363956,-1.060426 -1.565463,-3.000017 -2.04428,-3.153543 z"
         id="path3-5-5-7-5-7"
         sodipodi:nodetypes="sssssss" />
      <path
         style="fill:#808080;stroke-width:0.167373;stroke-linejoin:round;paint-order:fill markers stroke"
         d="m 3.5056197,20.796454 c -0.3689866,-0.483652 2.1550184,-1.44244 2.1550184,-1.44244 1.3638767,4.046518 4.6330399,0.939752 6.2324629,0.736449 0.201742,-0.02564 1.728382,0.393103 1.934722,1.214313 0.07212,0.287032 -3.802668,3.027489 -4.6083951,2.812862 -1.0833692,-0.288581 -3.6512564,-0.61768 -3.9562481,-1.01745 z"
         id="path3-5-5-7-5-7-2"
         sodipodi:nodetypes="sssssss" />
      <path
         style="fill:#808080;stroke-width:0.214177;stroke-linejoin:round;paint-order:fill markers stroke"
         d="m 25.019074,18.723865 7.273918,2.23535 c 0.722265,0.856413 -5.279698,2.342629 -6.462994,2.73302 -1.516195,-0.0085 -1.738269,-0.584661 -3.25087,-0.808237 -0.515173,-2.427583 -0.763387,-3.221649 2.439946,-4.160133 z"
         id="path3-5-5-7-1-1"
         sodipodi:nodetypes="ccccc" />
      <g
         id="g7"
         transform="rotate(-26.526458,8.8929001,21.268219)"
         style="fill:#999999">
        <path
           style="fill:#999999;stroke-width:0.214177;stroke-linejoin:round;paint-order:fill markers stroke"
           d="m 7.1812237,17.950505 c -0.7739543,0.08351 -1.7520193,0.724612 -1.7520193,0.724612 0,0 1.006045,0.08942 1.8716243,0.01488 0.8973767,-0.07728 0.7313414,0.06233 1.0736443,-0.09971 0.3423008,-0.162038 0.1370929,-0.861027 0.1370929,-0.861027 -0.4439927,0.06043 -0.8849415,0.164608 -1.3303688,0.221234 z"
           id="path3-5-9"
           sodipodi:nodetypes="scsscs" />
        <path
           style="fill:#999999;stroke-width:0.214177;stroke-linejoin:round;paint-order:fill markers stroke"
           d="m 7.3530946,19.042552 c -0.7740982,0.08216 -1.8656822,-0.337443 -1.8656822,-0.337443 0,0 0.964338,-0.300293 1.826088,-0.410615 0.8934067,-0.114373 0.7015877,-0.215685 1.0704285,-0.129755 0.3688386,0.08593 0.3161971,0.812516 0.3161971,0.812516 -0.446726,0.03489 -0.8997339,0.02639 -1.3470564,0.06531 z"
           id="path3-5-5-4"
           sodipodi:nodetypes="scsscs" />
      </g>
      <ellipse
         style="fill:#2b2200;stroke-width:0.206577;stroke-linejoin:round;paint-order:fill markers stroke"
         id="path4-4-2"
         cx="8.6837473"
         cy="17.399805"
         rx="0.24546139"
         ry="0.21658358" />
    </g>
  </g>
</svg>
