<?xml version="1.0" encoding="UTF-8" standalone="no"?>
<!-- Created with Inkscape (http://www.inkscape.org/) -->

<svg
   width="140"
   height="140"
   viewBox="0 0 37.041666 37.041666"
   version="1.1"
   id="svg1"
   inkscape:version="1.3 (0e150ed6c4, 2023-07-21)"
   sodipodi:docname="magpies.svg"
   xmlns:inkscape="http://www.inkscape.org/namespaces/inkscape"
   xmlns:sodipodi="http://sodipodi.sourceforge.net/DTD/sodipodi-0.dtd"
   xmlns="http://www.w3.org/2000/svg"
   xmlns:svg="http://www.w3.org/2000/svg">
  <sodipodi:namedview
     id="namedview1"
     pagecolor="#ffffff"
     bordercolor="#000000"
     borderopacity="0.25"
     inkscape:showpageshadow="2"
     inkscape:pageopacity="0.0"
     inkscape:pagecheckerboard="0"
     inkscape:deskcolor="#d1d1d1"
     inkscape:document-units="mm"
     inkscape:zoom="5.9508979"
     inkscape:cx="36.969211"
     inkscape:cy="44.9512"
     inkscape:window-width="1920"
     inkscape:window-height="1112"
     inkscape:window-x="-8"
     inkscape:window-y="-8"
     inkscape:window-maximized="1"
     inkscape:current-layer="layer1" />
  <defs
     id="defs1" />
  <g
     inkscape:label="Layer 1"
     inkscape:groupmode="layer"
     id="layer1">
    <g
       id="g5"
       inkscape:export-filename="magpie2.svg"
       inkscape:export-xdpi="128.92067"
       inkscape:export-ydpi="128.92067"
       transform="translate(-21.629846,-30.306935)">
      <path
         d="M 7.8173472,36.273075 C 7.2945644,35.651783 7.2908633,35.61183 7.3306262,31.019084 L 7.3706976,26.391146 6.9023587,24.277049 C 7.0538365,24.239399 6.9029757,23.504864 6.491664,22.277387 5.0973303,18.116284 4.9195549,15.091432 5.7973396,10.463466 5.9492519,9.6625366 5.93202,9.6121272 5.600264,9.8869349 5.1981931,10.219988 5.1412911,10.105702 5.4215365,9.5279657 5.5231846,9.3184142 5.8393126,8.6662833 6.1240427,8.0787852 6.409253,7.4902976 7.1183745,6.6034886 7.7031187,6.1040322 8.2868794,5.6054166 9.452381,4.2858528 10.293123,3.1716692 c 2.146307,-2.84436982 3.291966,-3.35268142 5.824722,-2.58434346 0.592407,0.17971278 1.297265,0.32781946 1.566352,0.3291256 0.04059,0.58987506 1.214406,0.82550736 0.507733,1.46969516 -2.268235,2.067673 -2.601913,2.9016088 -1.000643,5.5640312 0.883663,1.4692584 0.984092,1.7751024 0.987376,3.0069763 0.002,0.754246 -0.09061,1.371356 -0.205817,1.371356 -0.11521,0 -0.271952,0.370266 -0.348315,0.822814 -0.612409,3.629314 -2.004754,7.061941 -3.916257,9.654965 -0.556258,0.754585 -1.011378,1.4524 -1.011378,1.550702 l 0.0781,2.680163 c -0.177442,-0.0055 -0.273895,1.241004 -0.329125,4.253293 -0.07467,4.072353 -0.100155,4.284447 -0.575707,4.790604 -0.549369,0.584726 -0.521961,0.576105 -2.2821988,0.717887 -1.1559573,0.09311 -1.2810885,0.05594 -1.7706498,-0.525863 z"
         style="fill:#000000;stroke-width:0.829293"
         id="path1-7"
         sodipodi:nodetypes="csccsssssssscsscsssccssscc" />
      <path
         style="fill:#808080;stroke-width:0.449792;stroke-linejoin:round;paint-order:fill markers stroke"
         d="M 7.5014584,6.2252708 C 6.0238376,8.0487172 6.283553,7.6155011 5.8136291,8.4682087 3.9769857,11.800918 6.61911,8.4032931 7.191381,7.8701061 7.7232586,7.3745537 7.6913572,6.6114027 9.0727734,5.3924629 9.5881406,4.937711 10.486166,2.9718899 9.8462605,3.7582563 9.1441386,4.6210797 7.5014584,6.2252708 7.5014584,6.2252708 Z"
         id="path2-2"
         sodipodi:nodetypes="cssssc" />
      <path
         style="fill:#808080;stroke-width:0.449792;stroke-linejoin:round;paint-order:fill markers stroke"
         d="m 16.241815,5.9120226 c 0.487302,1.0060395 0.636289,1.4059497 1.106213,2.2586573 1.836643,3.3327091 -0.05095,0.013681 -0.623222,-0.5195058 C 16.192929,7.1556217 16.29626,6.738546 16.069524,6.3996414 15.770949,5.9533583 16.211066,5.4973434 16.241815,5.9120226 Z"
         id="path2-2-8"
         sodipodi:nodetypes="csssc" />
      <ellipse
         style="fill:#2b2200;stroke-width:0.449792;stroke-linejoin:round;paint-order:fill markers stroke"
         id="path4-4"
         cx="14.212602"
         cy="1.6954577"
         rx="0.5344584"
         ry="0.47158092" />
      <path
         style="fill:#808080;stroke-width:0.449792;stroke-linejoin:round;paint-order:fill markers stroke"
         d="m 19.868341,0.88377679 c 1.634678,-0.021064 3.835525,1.06891681 3.835525,1.06891681 0,0 -2.074956,0.4401422 -3.898403,0.5030197 -1.890432,0.065187 -1.509058,0.3143872 -2.263588,0.062877 -0.754529,-0.2515098 -0.503019,-1.76056882 -0.503019,-1.76056882 0.940923,0.0140328 1.886531,0.12002421 2.829485,0.12575531 z"
         id="path3-5"
         sodipodi:nodetypes="scsscs" />
    </g>
    <g
       id="g1">
      <path
         d="M 28.826657,26.506116 C 27.956869,26.24984 25.148882,24.786135 23.26108,23.359605 22.147291,22.517964 16.864722,19.361398 14.313065,18.50577 c 0.457194,1.054119 0.09617,0.901998 0.392266,1.613113 -0.400134,1.573332 -0.140596,1.495455 -0.546114,2.726436 -3.028661,0.976122 -1.038198,-0.183668 -1.920544,-0.114649 -1.023143,0.08003 -2.151137,0.09046 -2.23525,0.03366 C 9.2271317,22.24017 8.79691,22.202417 9.3100428,21.658239 9.7415207,21.200857 10.124549,21.636866 10.978828,20.616524 l 0.966416,-1.154279 -0.47705,-0.935097 c -0.262379,-0.514304 -0.56523,-0.880605 -0.672994,-0.814002 -0.107763,0.0666 -0.254937,-0.03266 -0.32705,-0.22059 -0.07208,-0.187928 -0.286742,-0.341687 -0.476938,-0.341687 -0.1902047,0 -0.4153598,-0.277058 -0.5003505,-0.615684 L 9.3363332,15.919502 9.1081534,16.478019 C 8.8955558,16.998378 8.865065,16.962329 8.6619138,15.950368 8.5383775,15.334997 8.3172066,14.8642 8.151659,14.8642 c -0.2937941,0 -0.6638238,-0.659423 -1.3793732,-2.458168 -0.370531,-0.93142 -0.7865996,-1.287652 -0.8012314,-0.686 -0.00346,0.157208 -0.1324553,0.08003 -0.2858342,-0.171501 C 5.4919473,11.231584 5.4245875,10.08341 5.4657864,7.8081496 L 5.525247,4.5251023 4.6391719,3.6651942 C 3.282774,2.2181933 2.9521768,2.848898 3.4626907,1.1505533 4.0286379,1.0281786 5.0211025,0.8042274 5.6681771,0.65288378 7.3447149,0.26075679 8.595349,0.75841683 9.4868082,2.1724189 10.181719,3.274667 12.515037,5.4888602 12.981673,5.4888602 c 0.154563,0 0.419119,0.1380989 0.587908,0.3068857 0.168789,0.1687868 0.536286,0.4296581 0.816667,0.5797122 0.280381,0.150055 0.509779,0.3760882 0.509779,0.5022959 0,0.1262076 0.514395,0.7657123 1.143104,1.4211226 0.628701,0.655409 1.143199,1.2967563 1.143329,1.4252162 1.29e-4,0.1284599 0.511594,0.9349722 1.136578,1.7922482 1.271886,1.744607 2.291566,3.692304 2.364535,4.516512 0.02662,0.300492 0.587493,1.536635 1.246417,2.746986 0.658923,1.21035 1.416888,1.899772 1.669625,2.01115 1.44983,0.63892 0.02958,0.0035 1.690504,0.874138 1.509082,0.901014 5.786533,3.635012 5.615109,4.081736 -0.06646,0.173075 -0.278341,0.314683 -0.470932,0.314683 -0.192598,0 -0.350177,0.154349 -0.350177,0.343 0,0.380614 0.07061,0.368861 -0.943282,0.07013 z M 13.790035,21.763312 c 0.34335,-0.687559 0.347265,-0.857692 0.04053,-1.758002 -0.349953,-1.027055 -1.21832,-2.097468 -0.907759,-1.118966 0.119552,0.376674 -0.0853,0.673081 -0.996017,1.440987 -0.778553,0.65649 -1.146526,1.139753 -1.146526,1.505766 0,0.662922 -2.5468753,1.154398 1.396322,0.893097 0.91752,-0.0608 1.274106,-0.283267 1.613481,-0.962882 z"
         style="fill:#000000;stroke-width:0.864253"
         id="path1-5"
         sodipodi:nodetypes="cscccsscscsscssccsscccccccccsssscsccssccssccccscsscc" />
      <path
         style="fill:#808080;stroke-width:0.388734;stroke-linejoin:round;paint-order:fill markers stroke"
         d="m 9.9457722,2.89128 c 1.9493008,1.8787519 0.5566538,0.3540695 1.9493008,1.8787519 0.173466,0.1899119 1.349649,0.5666252 2.087464,1.3130291 1.963628,1.9864882 -0.947938,0.6822957 -2.391484,0.5453574 C 9.8355393,6.4618855 8.547825,5.2206642 8.0383637,4.6251098 6.4804663,2.8039442 8.6174007,1.9715372 8.8222617,1.4509071 9.0271226,0.9302771 9.9457722,2.89128 9.9457722,2.89128 Z"
         id="path2-55" />
      <path
         style="fill:#808080;stroke-width:0.388734;stroke-linejoin:round;paint-order:fill markers stroke"
         d="m 11.087326,11.787094 c 2.230134,1.927702 3.768049,1.510752 5.855851,0.787748 1.724991,-0.597362 2.996232,-0.46583 -0.01929,0.789041 -2.197019,0.914263 -5.959482,0.836441 -7.455878,-2.686544 -0.2187297,-0.514958 1.619312,1.109758 1.619312,1.109758 z"
         id="path2-5-4"
         sodipodi:nodetypes="sssscs" />
      <path
         style="fill:#808080;stroke-width:0.185103;stroke-linejoin:round;paint-order:fill markers stroke"
         d="m 14.842858,18.914928 c -0.384486,-0.133341 -0.970464,-0.978805 -0.453822,-2.507024 0.440766,-1.303781 2.791313,1.832903 4.068069,2.759713 1.93508,1.752127 2.387334,2.173299 3.330166,3.099235 -2.824725,-1.437454 -3.293104,-2.08563 -6.944413,-3.351924 z"
         id="path3-5-5-7-1-1-5"
         sodipodi:nodetypes="ssccs" />
      <g
         id="g9"
         transform="matrix(1.0616718,0.16923938,-0.16923938,1.0616718,0.33544506,-1.0434706)">
        <path
           style="fill:#808080;stroke-width:0.214177;stroke-linejoin:round;paint-order:fill markers stroke"
           d="m 1.9752857,1.6979469 c -0.773954,0.08351 -1.75201903,0.724612 -1.75201903,0.724612 0,0 1.00604503,0.08942 1.87162403,0.01488 0.897377,-0.07728 0.731342,0.06233 1.073645,-0.09971 0.3423,-0.162038 0.137093,-0.861027 0.137093,-0.861027 -0.443993,0.06043 -0.884942,0.164608 -1.330369,0.221234 z"
           id="path3-5-4" />
        <path
           style="fill:#808080;stroke-width:0.214177;stroke-linejoin:round;paint-order:fill markers stroke"
           d="m 2.1471567,2.7899929 c -0.774098,0.08216 -1.86568203,-0.337442 -1.86568203,-0.337442 0,0 0.96433803,-0.300293 1.82608803,-0.410615 0.893407,-0.114373 0.701588,-0.215685 1.070429,-0.129755 0.368838,0.08593 0.316197,0.812516 0.316197,0.812516 -0.446726,0.03489 -0.899734,0.02639 -1.347057,0.06531 z"
           id="path3-5-5-2" />
      </g>
      <ellipse
         style="fill:#2b2200;stroke-width:0.178535;stroke-linejoin:round;paint-order:fill markers stroke"
         id="path4-4-6-6"
         cx="5.9443483"
         cy="1.3676188"
         rx="0.21214066"
         ry="0.18718293" />
    </g>
  </g>
</svg>
